{
    "asset" : {
        "generator" : "Khronos glTF Blender I/O v1.1.46",
        "version" : "2.0"
    },
    "scene" : 0,
    "scenes" : [
        {
            "name" : "Scene",
            "nodes" : [
                0,
                1,
                2,
                3,
                4,
                5,
                6,
                7
            ]
        }
    ],
    "nodes" : [
        {
            "name" : "Light",
            "rotation" : [
                0.16907575726509094,
                0.7558803558349609,
                -0.27217137813568115,
                0.570947527885437
            ],
            "translation" : [
                4.076245307922363,
                5.903861999511719,
                -1.0054539442062378
            ]
        },
        {
            "name" : "Camera",
            "rotation" : [
                0.483536034822464,
                0.33687159419059753,
                -0.20870360732078552,
                0.7804827094078064
            ],
            "translation" : [
                7.358891487121582,
                4.958309173583984,
                6.925790786743164
            ]
        },
        {
            "mesh" : 0,
            "name" : "Plane",
            "scale" : [
                49.2285041809082,
                49.2285041809082,
                49.2285041809082
            ],
            "translation" : [
                -1.9319074153900146,
                10.088849067687988,
                0
            ]
        },
        {
            "mesh" : 1,
            "name" : "Cube.001",
            "rotation" : [
                0,
                0.599956214427948,
                0,
                0.8000328540802002
            ],
            "scale" : [
                0.6464017033576965,
                0.6464017033576965,
                0.6464017033576965
            ],
            "translation" : [
                2.2428274154663086,
                11.858626365661621,
                -0.48646867275238037
            ]
        },
        {
            "mesh" : 2,
            "name" : "Cube.002",
            "rotation" : [
                0,
                0.920684278011322,
                0,
                0.390308141708374
            ],
            "scale" : [
                0.5229904651641846,
                0.5229904651641846,
                0.5229904651641846
            ],
            "translation" : [
                1.7346069812774658,
                11.52286434173584,
                -1.647904634475708
            ]
        },
        {
            "mesh" : 3,
            "name" : "Cube.003",
            "rotation" : [
                0.16428735852241516,
                0,
                0,
                0.986412525177002
            ],
            "translation" : [
                2.856595993041992,
                10.435336112976074,
                0.10481560230255127
            ]
        },
        {
            "mesh" : 4,
            "name" : "Cube.004",
            "rotation" : [
                0.05682474374771118,
                -0.9255276322364807,
                0.1541469544172287,
                0.3411865830421448
            ],
            "translation" : [
                -0.04016673564910889,
                10.06206226348877,
                -1.3882808685302734
            ]
        },
        {
            "mesh" : 5,
            "name" : "Cube",
            "translation" : [
                0.5227802991867065,
                13.029120445251465,
                0.9948694705963135
            ]
        }
    ],
    "materials" : [
        {
            "doubleSided" : true,
            "emissiveFactor" : [
                0,
                0,
                0
            ],
            "name" : "Material.002",
            "pbrMetallicRoughness" : {
                "baseColorFactor" : [
                    0.6938719153404236,
                    0.40724027156829834,
                    0.1714411824941635,
                    1
                ],
                "metallicFactor" : 0,
                "roughnessFactor" : 0.5
            }
        },
        {
            "doubleSided" : true,
            "emissiveFactor" : [
                0,
                0,
                0
            ],
            "name" : "Material.001",
            "pbrMetallicRoughness" : {
                "baseColorFactor" : [
                    0.09758736193180084,
                    0.17144115269184113,
                    0.10702312737703323,
                    1
                ],
                "metallicFactor" : 0,
                "roughnessFactor" : 0.5
            }
        }
    ],
    "meshes" : [
        {
            "name" : "Plane",
            "primitives" : [
                {
                    "attributes" : {
                        "POSITION" : 0,
                        "NORMAL" : 1,
                        "TEXCOORD_0" : 2
                    },
                    "indices" : 3,
                    "material" : 0
                }
            ]
        },
        {
            "name" : "Cube.002",
            "primitives" : [
                {
                    "attributes" : {
                        "POSITION" : 4,
                        "NORMAL" : 5,
                        "TEXCOORD_0" : 6
                    },
                    "indices" : 7,
                    "material" : 1
                }
            ]
        },
        {
            "name" : "Cube.003",
            "primitives" : [
                {
                    "attributes" : {
                        "POSITION" : 8,
                        "NORMAL" : 9,
                        "TEXCOORD_0" : 10
                    },
                    "indices" : 7,
                    "material" : 1
                }
            ]
        },
        {
            "name" : "Cube.004",
            "primitives" : [
                {
                    "attributes" : {
                        "POSITION" : 11,
                        "NORMAL" : 12,
                        "TEXCOORD_0" : 13
                    },
                    "indices" : 14,
                    "material" : 1
                }
            ]
        },
        {
            "name" : "Cube.005",
            "primitives" : [
                {
                    "attributes" : {
                        "POSITION" : 15,
                        "NORMAL" : 16,
                        "TEXCOORD_0" : 17
                    },
                    "indices" : 14,
                    "material" : 1
                }
            ]
        },
        {
            "name" : "Cube.001",
            "primitives" : [
                {
                    "attributes" : {
                        "POSITION" : 18,
                        "NORMAL" : 19,
                        "TEXCOORD_0" : 20
                    },
                    "indices" : 21,
                    "material" : 1
                }
            ]
        }
    ],
    "accessors" : [
        {
            "bufferView" : 0,
            "componentType" : 5126,
            "count" : 253,
            "max" : [
                1.071029543876648,
                0.20828144252300262,
                1.1964589357376099
            ],
            "min" : [
                -1.1433587074279785,
                -0.06670267879962921,
                -1.0852820873260498
            ],
            "type" : "VEC3"
        },
        {
            "bufferView" : 1,
            "componentType" : 5126,
            "count" : 253,
            "type" : "VEC3"
        },
        {
            "bufferView" : 2,
            "componentType" : 5126,
            "count" : 253,
            "type" : "VEC2"
        },
        {
            "bufferView" : 3,
            "componentType" : 5123,
            "count" : 384,
            "type" : "SCALAR"
        },
        {
            "bufferView" : 4,
            "componentType" : 5126,
            "count" : 56,
            "max" : [
                1.4510713815689087,
                5.941235542297363,
                0.8273994326591492
            ],
            "min" : [
                -0.10632586479187012,
                -3.403353452682495,
                -1.6570109128952026
            ],
            "type" : "VEC3"
        },
        {
            "bufferView" : 5,
            "componentType" : 5126,
            "count" : 56,
            "type" : "VEC3"
        },
        {
            "bufferView" : 6,
            "componentType" : 5126,
            "count" : 56,
            "type" : "VEC2"
        },
        {
            "bufferView" : 7,
            "componentType" : 5123,
            "count" : 84,
            "type" : "SCALAR"
        },
        {
            "bufferView" : 8,
            "componentType" : 5126,
            "count" : 56,
            "max" : [
                1.4510713815689087,
                7.111812114715576,
                -0.7870393991470337
            ],
            "min" : [
                -0.5496676564216614,
                -3.403353452682495,
                -1.9483306407928467
            ],
            "type" : "VEC3"
        },
        {
            "bufferView" : 9,
            "componentType" : 5126,
            "count" : 56,
            "type" : "VEC3"
        },
        {
            "bufferView" : 10,
            "componentType" : 5126,
            "count" : 56,
            "type" : "VEC2"
        },
        {
            "bufferView" : 11,
            "componentType" : 5126,
            "count" : 24,
            "max" : [
                -0.8924822807312012,
                1.8058040142059326,
                -0.3608952760696411
            ],
            "min" : [
                -1.351117491722107,
                -1.0870208740234375,
                -0.8179464936256409
            ],
            "type" : "VEC3"
        },
        {
            "bufferView" : 12,
            "componentType" : 5126,
            "count" : 24,
            "type" : "VEC3"
        },
        {
            "bufferView" : 13,
            "componentType" : 5126,
            "count" : 24,
            "type" : "VEC2"
        },
        {
            "bufferView" : 14,
            "componentType" : 5123,
            "count" : 36,
            "type" : "SCALAR"
        },
        {
            "bufferView" : 15,
            "componentType" : 5126,
            "count" : 24,
            "max" : [
                -0.8924822807312012,
                1.8058040142059326,
                -0.3608952760696411
            ],
            "min" : [
                -1.351117491722107,
                -1.0870208740234375,
                -0.8179464936256409
            ],
            "type" : "VEC3"
        },
        {
            "bufferView" : 16,
            "componentType" : 5126,
            "count" : 24,
            "type" : "VEC3"
        },
        {
            "bufferView" : 17,
            "componentType" : 5126,
            "count" : 24,
            "type" : "VEC2"
        },
        {
            "bufferView" : 18,
            "componentType" : 5126,
            "count" : 56,
            "max" : [
                1.3405321836471558,
                3.7584195137023926,
                0.7400540709495544
            ],
            "min" : [
                -0.10632586479187012,
                -3.403353452682495,
                -1.6570109128952026
            ],
            "type" : "VEC3"
        },
        {
            "bufferView" : 19,
            "componentType" : 5126,
            "count" : 56,
            "type" : "VEC3"
        },
        {
            "bufferView" : 20,
            "componentType" : 5126,
            "count" : 56,
            "type" : "VEC2"
        },
        {
            "bufferView" : 21,
            "componentType" : 5123,
            "count" : 84,
            "type" : "SCALAR"
        }
    ],
    "bufferViews" : [
        {
            "buffer" : 0,
            "byteLength" : 3036,
            "byteOffset" : 0
        },
        {
            "buffer" : 0,
            "byteLength" : 3036,
            "byteOffset" : 3036
        },
        {
            "buffer" : 0,
            "byteLength" : 2024,
            "byteOffset" : 6072
        },
        {
            "buffer" : 0,
            "byteLength" : 768,
            "byteOffset" : 8096
        },
        {
            "buffer" : 0,
            "byteLength" : 672,
            "byteOffset" : 8864
        },
        {
            "buffer" : 0,
            "byteLength" : 672,
            "byteOffset" : 9536
        },
        {
            "buffer" : 0,
            "byteLength" : 448,
            "byteOffset" : 10208
        },
        {
            "buffer" : 0,
            "byteLength" : 168,
            "byteOffset" : 10656
        },
        {
            "buffer" : 0,
            "byteLength" : 672,
            "byteOffset" : 10824
        },
        {
            "buffer" : 0,
            "byteLength" : 672,
            "byteOffset" : 11496
        },
        {
            "buffer" : 0,
            "byteLength" : 448,
            "byteOffset" : 12168
        },
        {
            "buffer" : 0,
            "byteLength" : 288,
            "byteOffset" : 12616
        },
        {
            "buffer" : 0,
            "byteLength" : 288,
            "byteOffset" : 12904
        },
        {
            "buffer" : 0,
            "byteLength" : 192,
            "byteOffset" : 13192
        },
        {
            "buffer" : 0,
            "byteLength" : 72,
            "byteOffset" : 13384
        },
        {
            "buffer" : 0,
            "byteLength" : 288,
            "byteOffset" : 13456
        },
        {
            "buffer" : 0,
            "byteLength" : 288,
            "byteOffset" : 13744
        },
        {
            "buffer" : 0,
            "byteLength" : 192,
            "byteOffset" : 14032
        },
        {
            "buffer" : 0,
            "byteLength" : 672,
            "byteOffset" : 14224
        },
        {
            "buffer" : 0,
            "byteLength" : 672,
            "byteOffset" : 14896
        },
        {
            "buffer" : 0,
            "byteLength" : 448,
            "byteOffset" : 15568
        },
        {
            "buffer" : 0,
            "byteLength" : 168,
            "byteOffset" : 16016
        }
    ],
    "buffers" : [
        {
            "byteLength" : 16184,
            "uri" : "data:application/octet-stream;base64,"
        }
    ]
}
