{
    "asset" : {
        "generator" : "Khronos glTF Blender I/O v1.1.46",
        "version" : "2.0"
    },
    "scene" : 0,
    "scenes" : [
        {
            "name" : "Scene",
            "nodes" : [
                0,
                1,
                2,
                3,
                4,
                5,
                6,
                7,
                8,
                9,
                10,
                11
            ]
        }
    ],
    "nodes" : [
        {
            "mesh" : 0,
            "name" : "Plane"
        },
        {
            "mesh" : 1,
            "name" : "Cube",
            "translation" : [
                -7.38138484954834,
                -0.352728009223938,
                -3.1843090057373047
            ]
        },
        {
            "mesh" : 2,
            "name" : "Cube.001",
            "scale" : [
                1.6792329549789429,
                1.6792329549789429,
                1.6792329549789429
            ],
            "translation" : [
                -22.626426696777344,
                4.666004657745361,
                3.7286386489868164
            ]
        },
        {
            "mesh" : 3,
            "name" : "Cube.002",
            "rotation" : [
                0.4295327365398407,
                0.35004228353500366,
                -0.08816970884799957,
                0.8277669548988342
            ],
            "scale" : [
                0.9870098233222961,
                0.9870098233222961,
                0.9870098233222961
            ],
            "translation" : [
                -12.217175483703613,
                4.666004657745361,
                14.492087364196777
            ]
        },
        {
            "mesh" : 4,
            "name" : "Cube.003",
            "rotation" : [
                0.4295327365398407,
                0.35004228353500366,
                -0.08816970884799957,
                0.8277669548988342
            ],
            "scale" : [
                1.2404075860977173,
                1.2404075860977173,
                1.2404077053070068
            ],
            "translation" : [
                -6.033730506896973,
                4.666004657745361,
                -15.255936622619629
            ]
        },
        {
            "mesh" : 5,
            "name" : "Cube.004",
            "rotation" : [
                0.061698947101831436,
                0.8291866183280945,
                0.4032108783721924,
                0.3821829557418823
            ],
            "scale" : [
                1.2404075860977173,
                1.2404075860977173,
                1.2404077053070068
            ],
            "translation" : [
                2.564666748046875,
                1.358504295349121,
                -10.264874458312988
            ]
        },
        {
            "mesh" : 6,
            "name" : "Cube.005",
            "rotation" : [
                0.061698947101831436,
                0.8291866183280945,
                0.4032108783721924,
                0.3821829557418823
            ],
            "scale" : [
                2.657930612564087,
                2.657930612564087,
                2.657930850982666
            ],
            "translation" : [
                15.896048545837402,
                1.358504295349121,
                -6.05958890914917
            ]
        },
        {
            "mesh" : 7,
            "name" : "Cube.006",
            "rotation" : [
                -0.27059900760650635,
                0.9335219264030457,
                -0.20017148554325104,
                -0.1234680712223053
            ],
            "scale" : [
                4.062030792236328,
                4.062030792236328,
                4.062030792236328
            ],
            "translation" : [
                24.9083251953125,
                4.084601402282715,
                3.793198585510254
            ]
        },
        {
            "mesh" : 8,
            "name" : "Cube.007",
            "rotation" : [
                -0.2910194993019104,
                0.9378722310066223,
                -0.09847807139158249,
                -0.16126205027103424
            ],
            "scale" : [
                1.710517406463623,
                1.710517406463623,
                1.7105175256729126
            ],
            "translation" : [
                10.557623863220215,
                3.6840248107910156,
                13.939061164855957
            ]
        },
        {
            "mesh" : 9,
            "name" : "Cube.008",
            "translation" : [
                6.635817527770996,
                -0.5417803525924683,
                2.3731226921081543
            ]
        },
        {
            "mesh" : 10,
            "name" : "Cube.009",
            "rotation" : [
                0.6671867966651917,
                0.314505398273468,
                0.30546289682388306,
                0.6021963953971863
            ],
            "scale" : [
                1.1850911378860474,
                1.185091257095337,
                1.1850911378860474
            ],
            "translation" : [
                -14.342127799987793,
                -0.004693284630775452,
                4.301743030548096
            ]
        },
        {
            "mesh" : 11,
            "name" : "Cube.010",
            "rotation" : [
                0.42091643810272217,
                0.2607690989971161,
                0.11910714954137802,
                0.860605776309967
            ],
            "scale" : [
                1.6792329549789429,
                1.6792329549789429,
                1.6792329549789429
            ],
            "translation" : [
                -19.828475952148438,
                1.9913215637207031,
                -4.407419204711914
            ]
        }
    ],
    "materials" : [
        {
            "doubleSided" : true,
            "emissiveFactor" : [
                0,
                0,
                0
            ],
            "name" : "Material.001",
            "pbrMetallicRoughness" : {
                "baseColorFactor" : [
                    1,
                    0.8829358220100403,
                    0.7489271759986877,
                    1
                ],
                "metallicFactor" : 0,
                "roughnessFactor" : 1
            }
        },
        {
            "doubleSided" : true,
            "emissiveFactor" : [
                0,
                0,
                0
            ],
            "name" : "rocks",
            "pbrMetallicRoughness" : {
                "baseColorFactor" : [
                    0.5028867125511169,
                    0.590618908405304,
                    0.6038273572921753,
                    1
                ],
                "metallicFactor" : 0,
                "roughnessFactor" : 0.5
            }
        },
        {
            "doubleSided" : true,
            "emissiveFactor" : [
                0,
                0,
                0
            ],
            "name" : "rocks.001",
            "pbrMetallicRoughness" : {
                "baseColorFactor" : [
                    0.5028867125511169,
                    0.590618908405304,
                    0.6038273572921753,
                    1
                ],
                "metallicFactor" : 0,
                "roughnessFactor" : 0.5
            }
        }
    ],
    "meshes" : [
        {
            "name" : "Plane.001",
            "primitives" : [
                {
                    "attributes" : {
                        "POSITION" : 0,
                        "NORMAL" : 1,
                        "TEXCOORD_0" : 2
                    },
                    "indices" : 3,
                    "material" : 0
                }
            ]
        },
        {
            "name" : "Cube.001",
            "primitives" : [
                {
                    "attributes" : {
                        "POSITION" : 4,
                        "NORMAL" : 5,
                        "TEXCOORD_0" : 6
                    },
                    "indices" : 7,
                    "material" : 1
                }
            ]
        },
        {
            "name" : "Cube.002",
            "primitives" : [
                {
                    "attributes" : {
                        "POSITION" : 8,
                        "NORMAL" : 9,
                        "TEXCOORD_0" : 10
                    },
                    "indices" : 7,
                    "material" : 1
                }
            ]
        },
        {
            "name" : "Cube.003",
            "primitives" : [
                {
                    "attributes" : {
                        "POSITION" : 11,
                        "NORMAL" : 12,
                        "TEXCOORD_0" : 13
                    },
                    "indices" : 7,
                    "material" : 1
                }
            ]
        },
        {
            "name" : "Cube.004",
            "primitives" : [
                {
                    "attributes" : {
                        "POSITION" : 14,
                        "NORMAL" : 15,
                        "TEXCOORD_0" : 16
                    },
                    "indices" : 7,
                    "material" : 1
                }
            ]
        },
        {
            "name" : "Cube.005",
            "primitives" : [
                {
                    "attributes" : {
                        "POSITION" : 17,
                        "NORMAL" : 18,
                        "TEXCOORD_0" : 19
                    },
                    "indices" : 7,
                    "material" : 1
                }
            ]
        },
        {
            "name" : "Cube.006",
            "primitives" : [
                {
                    "attributes" : {
                        "POSITION" : 20,
                        "NORMAL" : 21,
                        "TEXCOORD_0" : 22
                    },
                    "indices" : 7,
                    "material" : 1
                }
            ]
        },
        {
            "name" : "Cube.007",
            "primitives" : [
                {
                    "attributes" : {
                        "POSITION" : 23,
                        "NORMAL" : 24,
                        "TEXCOORD_0" : 25
                    },
                    "indices" : 7,
                    "material" : 1
                }
            ]
        },
        {
            "name" : "Cube.008",
            "primitives" : [
                {
                    "attributes" : {
                        "POSITION" : 26,
                        "NORMAL" : 27,
                        "TEXCOORD_0" : 28
                    },
                    "indices" : 7,
                    "material" : 1
                }
            ]
        },
        {
            "name" : "Cube.009",
            "primitives" : [
                {
                    "attributes" : {
                        "POSITION" : 29,
                        "NORMAL" : 30,
                        "TEXCOORD_0" : 31
                    },
                    "indices" : 7,
                    "material" : 1
                }
            ]
        },
        {
            "name" : "Cube.010",
            "primitives" : [
                {
                    "attributes" : {
                        "POSITION" : 32,
                        "NORMAL" : 33,
                        "TEXCOORD_0" : 34
                    },
                    "indices" : 7,
                    "material" : 1
                }
            ]
        },
        {
            "name" : "Cube.011",
            "primitives" : [
                {
                    "attributes" : {
                        "POSITION" : 35,
                        "NORMAL" : 36,
                        "TEXCOORD_0" : 37
                    },
                    "indices" : 7,
                    "material" : 2
                }
            ]
        }
    ],
    "accessors" : [
        {
            "bufferView" : 0,
            "componentType" : 5126,
            "count" : 1071,
            "max" : [
                32.25941848754883,
                8.896219253540039,
                26.48930549621582
            ],
            "min" : [
                -31.362903594970703,
                -0.13737821578979492,
                -20.531002044677734
            ],
            "type" : "VEC3"
        },
        {
            "bufferView" : 1,
            "componentType" : 5126,
            "count" : 1071,
            "type" : "VEC3"
        },
        {
            "bufferView" : 2,
            "componentType" : 5126,
            "count" : 1071,
            "type" : "VEC2"
        },
        {
            "bufferView" : 3,
            "componentType" : 5123,
            "count" : 1632,
            "type" : "SCALAR"
        },
        {
            "bufferView" : 4,
            "componentType" : 5126,
            "count" : 40,
            "max" : [
                1,
                0.9660735726356506,
                1.0021817684173584
            ],
            "min" : [
                -1,
                -0.8572937250137329,
                -1
            ],
            "type" : "VEC3"
        },
        {
            "bufferView" : 5,
            "componentType" : 5126,
            "count" : 40,
            "type" : "VEC3"
        },
        {
            "bufferView" : 6,
            "componentType" : 5126,
            "count" : 40,
            "type" : "VEC2"
        },
        {
            "bufferView" : 7,
            "componentType" : 5123,
            "count" : 60,
            "type" : "SCALAR"
        },
        {
            "bufferView" : 8,
            "componentType" : 5126,
            "count" : 40,
            "max" : [
                1,
                0.9660735726356506,
                1.0021817684173584
            ],
            "min" : [
                -1,
                -0.8572937250137329,
                -1
            ],
            "type" : "VEC3"
        },
        {
            "bufferView" : 9,
            "componentType" : 5126,
            "count" : 40,
            "type" : "VEC3"
        },
        {
            "bufferView" : 10,
            "componentType" : 5126,
            "count" : 40,
            "type" : "VEC2"
        },
        {
            "bufferView" : 11,
            "componentType" : 5126,
            "count" : 40,
            "max" : [
                1,
                0.9660735726356506,
                1.0021817684173584
            ],
            "min" : [
                -1,
                -0.8572937250137329,
                -1
            ],
            "type" : "VEC3"
        },
        {
            "bufferView" : 12,
            "componentType" : 5126,
            "count" : 40,
            "type" : "VEC3"
        },
        {
            "bufferView" : 13,
            "componentType" : 5126,
            "count" : 40,
            "type" : "VEC2"
        },
        {
            "bufferView" : 14,
            "componentType" : 5126,
            "count" : 40,
            "max" : [
                1,
                0.9660735726356506,
                1.0021817684173584
            ],
            "min" : [
                -1,
                -0.8572937250137329,
                -1
            ],
            "type" : "VEC3"
        },
        {
            "bufferView" : 15,
            "componentType" : 5126,
            "count" : 40,
            "type" : "VEC3"
        },
        {
            "bufferView" : 16,
            "componentType" : 5126,
            "count" : 40,
            "type" : "VEC2"
        },
        {
            "bufferView" : 17,
            "componentType" : 5126,
            "count" : 40,
            "max" : [
                1,
                0.9660735726356506,
                1.0021817684173584
            ],
            "min" : [
                -1,
                -0.8572937250137329,
                -1
            ],
            "type" : "VEC3"
        },
        {
            "bufferView" : 18,
            "componentType" : 5126,
            "count" : 40,
            "type" : "VEC3"
        },
        {
            "bufferView" : 19,
            "componentType" : 5126,
            "count" : 40,
            "type" : "VEC2"
        },
        {
            "bufferView" : 20,
            "componentType" : 5126,
            "count" : 40,
            "max" : [
                1,
                0.9660735726356506,
                1.0021817684173584
            ],
            "min" : [
                -1,
                -0.8572937250137329,
                -1
            ],
            "type" : "VEC3"
        },
        {
            "bufferView" : 21,
            "componentType" : 5126,
            "count" : 40,
            "type" : "VEC3"
        },
        {
            "bufferView" : 22,
            "componentType" : 5126,
            "count" : 40,
            "type" : "VEC2"
        },
        {
            "bufferView" : 23,
            "componentType" : 5126,
            "count" : 40,
            "max" : [
                1,
                0.9660735726356506,
                1.0021817684173584
            ],
            "min" : [
                -1,
                -0.8572937250137329,
                -1
            ],
            "type" : "VEC3"
        },
        {
            "bufferView" : 24,
            "componentType" : 5126,
            "count" : 40,
            "type" : "VEC3"
        },
        {
            "bufferView" : 25,
            "componentType" : 5126,
            "count" : 40,
            "type" : "VEC2"
        },
        {
            "bufferView" : 26,
            "componentType" : 5126,
            "count" : 40,
            "max" : [
                1,
                0.9660735726356506,
                1.0021817684173584
            ],
            "min" : [
                -1,
                -0.8572937250137329,
                -1
            ],
            "type" : "VEC3"
        },
        {
            "bufferView" : 27,
            "componentType" : 5126,
            "count" : 40,
            "type" : "VEC3"
        },
        {
            "bufferView" : 28,
            "componentType" : 5126,
            "count" : 40,
            "type" : "VEC2"
        },
        {
            "bufferView" : 29,
            "componentType" : 5126,
            "count" : 40,
            "max" : [
                1.1311122179031372,
                0.9660735726356506,
                1.6903460025787354
            ],
            "min" : [
                -1,
                -0.8572937250137329,
                -1
            ],
            "type" : "VEC3"
        },
        {
            "bufferView" : 30,
            "componentType" : 5126,
            "count" : 40,
            "type" : "VEC3"
        },
        {
            "bufferView" : 31,
            "componentType" : 5126,
            "count" : 40,
            "type" : "VEC2"
        },
        {
            "bufferView" : 32,
            "componentType" : 5126,
            "count" : 40,
            "max" : [
                1,
                0.9660735726356506,
                1.0021817684173584
            ],
            "min" : [
                -1,
                -0.8572937250137329,
                -1
            ],
            "type" : "VEC3"
        },
        {
            "bufferView" : 33,
            "componentType" : 5126,
            "count" : 40,
            "type" : "VEC3"
        },
        {
            "bufferView" : 34,
            "componentType" : 5126,
            "count" : 40,
            "type" : "VEC2"
        },
        {
            "bufferView" : 35,
            "componentType" : 5126,
            "count" : 40,
            "max" : [
                1,
                0.9660735726356506,
                1.0021817684173584
            ],
            "min" : [
                -1,
                -0.8572937250137329,
                -1
            ],
            "type" : "VEC3"
        },
        {
            "bufferView" : 36,
            "componentType" : 5126,
            "count" : 40,
            "type" : "VEC3"
        },
        {
            "bufferView" : 37,
            "componentType" : 5126,
            "count" : 40,
            "type" : "VEC2"
        }
    ],
    "bufferViews" : [
        {
            "buffer" : 0,
            "byteLength" : 12852,
            "byteOffset" : 0
        },
        {
            "buffer" : 0,
            "byteLength" : 12852,
            "byteOffset" : 12852
        },
        {
            "buffer" : 0,
            "byteLength" : 8568,
            "byteOffset" : 25704
        },
        {
            "buffer" : 0,
            "byteLength" : 3264,
            "byteOffset" : 34272
        },
        {
            "buffer" : 0,
            "byteLength" : 480,
            "byteOffset" : 37536
        },
        {
            "buffer" : 0,
            "byteLength" : 480,
            "byteOffset" : 38016
        },
        {
            "buffer" : 0,
            "byteLength" : 320,
            "byteOffset" : 38496
        },
        {
            "buffer" : 0,
            "byteLength" : 120,
            "byteOffset" : 38816
        },
        {
            "buffer" : 0,
            "byteLength" : 480,
            "byteOffset" : 38936
        },
        {
            "buffer" : 0,
            "byteLength" : 480,
            "byteOffset" : 39416
        },
        {
            "buffer" : 0,
            "byteLength" : 320,
            "byteOffset" : 39896
        },
        {
            "buffer" : 0,
            "byteLength" : 480,
            "byteOffset" : 40216
        },
        {
            "buffer" : 0,
            "byteLength" : 480,
            "byteOffset" : 40696
        },
        {
            "buffer" : 0,
            "byteLength" : 320,
            "byteOffset" : 41176
        },
        {
            "buffer" : 0,
            "byteLength" : 480,
            "byteOffset" : 41496
        },
        {
            "buffer" : 0,
            "byteLength" : 480,
            "byteOffset" : 41976
        },
        {
            "buffer" : 0,
            "byteLength" : 320,
            "byteOffset" : 42456
        },
        {
            "buffer" : 0,
            "byteLength" : 480,
            "byteOffset" : 42776
        },
        {
            "buffer" : 0,
            "byteLength" : 480,
            "byteOffset" : 43256
        },
        {
            "buffer" : 0,
            "byteLength" : 320,
            "byteOffset" : 43736
        },
        {
            "buffer" : 0,
            "byteLength" : 480,
            "byteOffset" : 44056
        },
        {
            "buffer" : 0,
            "byteLength" : 480,
            "byteOffset" : 44536
        },
        {
            "buffer" : 0,
            "byteLength" : 320,
            "byteOffset" : 45016
        },
        {
            "buffer" : 0,
            "byteLength" : 480,
            "byteOffset" : 45336
        },
        {
            "buffer" : 0,
            "byteLength" : 480,
            "byteOffset" : 45816
        },
        {
            "buffer" : 0,
            "byteLength" : 320,
            "byteOffset" : 46296
        },
        {
            "buffer" : 0,
            "byteLength" : 480,
            "byteOffset" : 46616
        },
        {
            "buffer" : 0,
            "byteLength" : 480,
            "byteOffset" : 47096
        },
        {
            "buffer" : 0,
            "byteLength" : 320,
            "byteOffset" : 47576
        },
        {
            "buffer" : 0,
            "byteLength" : 480,
            "byteOffset" : 47896
        },
        {
            "buffer" : 0,
            "byteLength" : 480,
            "byteOffset" : 48376
        },
        {
            "buffer" : 0,
            "byteLength" : 320,
            "byteOffset" : 48856
        },
        {
            "buffer" : 0,
            "byteLength" : 480,
            "byteOffset" : 49176
        },
        {
            "buffer" : 0,
            "byteLength" : 480,
            "byteOffset" : 49656
        },
        {
            "buffer" : 0,
            "byteLength" : 320,
            "byteOffset" : 50136
        },
        {
            "buffer" : 0,
            "byteLength" : 480,
            "byteOffset" : 50456
        },
        {
            "buffer" : 0,
            "byteLength" : 480,
            "byteOffset" : 50936
        },
        {
            "buffer" : 0,
            "byteLength" : 320,
            "byteOffset" : 51416
        }
    ],
    "buffers" : [
        {
            "byteLength" : 51736,
            "uri" : "data:application/octet-stream;base64,"
        }
    ]
}
