{
    "asset" : {
        "generator" : "Khronos glTF Blender I/O v1.1.46",
        "version" : "2.0"
    },
    "scene" : 0,
    "scenes" : [
        {
            "name" : "Scene",
            "nodes" : [
                0
            ]
        }
    ],
    "nodes" : [
        {
            "mesh" : 0,
            "name" : "Plane",
            "scale" : [
                30,
                1,
                30
            ]
        }
    ],
    "materials" : [
        {
            "doubleSided" : true,
            "emissiveFactor" : [
                0,
                0,
                0
            ],
            "name" : "ground",
            "pbrMetallicRoughness" : {
                "baseColorFactor" : [
                    1,
                    0.8796225190162659,
                    0.7454044818878174,
                    1
                ],
                "metallicFactor" : 0,
                "roughnessFactor" : 1
            }
        }
    ],
    "meshes" : [
        {
            "name" : "Plane.001",
            "primitives" : [
                {
                    "attributes" : {
                        "POSITION" : 0,
                        "NORMAL" : 1,
                        "TEXCOORD_0" : 2
                    },
                    "indices" : 3,
                    "material" : 0
                }
            ]
        }
    ],
    "accessors" : [
        {
            "bufferView" : 0,
            "componentType" : 5126,
            "count" : 1646,
            "max" : [
                1,
                5.2497382164001465,
                1
            ],
            "min" : [
                -1,
                -0.22494184970855713,
                -1.5928874015808105
            ],
            "type" : "VEC3"
        },
        {
            "bufferView" : 1,
            "componentType" : 5126,
            "count" : 1646,
            "type" : "VEC3"
        },
        {
            "bufferView" : 2,
            "componentType" : 5126,
            "count" : 1646,
            "type" : "VEC2"
        },
        {
            "bufferView" : 3,
            "componentType" : 5123,
            "count" : 2751,
            "type" : "SCALAR"
        }
    ],
    "bufferViews" : [
        {
            "buffer" : 0,
            "byteLength" : 19752,
            "byteOffset" : 0
        },
        {
            "buffer" : 0,
            "byteLength" : 19752,
            "byteOffset" : 19752
        },
        {
            "buffer" : 0,
            "byteLength" : 13168,
            "byteOffset" : 39504
        },
        {
            "buffer" : 0,
            "byteLength" : 5502,
            "byteOffset" : 52672
        }
    ],
    "buffers" : [
        {
            "byteLength" : 58176,
            "uri" : "data:application/octet-stream;base64,"
        }
    ]
}
