{
    "asset" : {
        "generator" : "Khronos glTF Blender I/O v1.1.46",
        "version" : "2.0"
    },
    "scene" : 0,
    "scenes" : [
        {
            "name" : "Scene",
            "nodes" : [
                0,
                1
            ]
        }
    ],
    "nodes" : [
        {
            "mesh" : 0,
            "name" : "Cube.026",
            "rotation" : [
                0,
                0.6959550380706787,
                0,
                0.7180853486061096
            ],
            "scale" : [
                0.8604097366333008,
                0.8604097366333008,
                0.8604097366333008
            ],
            "translation" : [
                -41.801414489746094,
                2.734485626220703,
                72.25131225585938
            ]
        },
        {
            "mesh" : 1,
            "name" : "Plane.001",
            "scale" : [
                30,
                1,
                30
            ],
            "translation" : [
                0,
                0,
                68.41777038574219
            ]
        }
    ],
    "materials" : [
        {
            "doubleSided" : true,
            "emissiveFactor" : [
                0,
                0,
                0
            ],
            "name" : "ground.002",
            "pbrMetallicRoughness" : {
                "baseColorFactor" : [
                    1,
                    0.8796225190162659,
                    0.7454044818878174,
                    1
                ],
                "metallicFactor" : 0,
                "roughnessFactor" : 1
            }
        },
        {
            "doubleSided" : true,
            "name" : "Material.002",
            "pbrMetallicRoughness" : {}
        }
    ],
    "meshes" : [
        {
            "name" : "Cube.026",
            "primitives" : [
                {
                    "attributes" : {
                        "POSITION" : 0,
                        "NORMAL" : 1,
                        "TEXCOORD_0" : 2
                    },
                    "indices" : 3,
                    "material" : 0
                }
            ]
        },
        {
            "name" : "Plane.002",
            "primitives" : [
                {
                    "attributes" : {
                        "POSITION" : 4,
                        "NORMAL" : 5,
                        "TEXCOORD_0" : 6
                    },
                    "indices" : 7,
                    "material" : 1
                }
            ]
        }
    ],
    "accessors" : [
        {
            "bufferView" : 0,
            "componentType" : 5126,
            "count" : 386,
            "max" : [
                11.774433135986328,
                13.889578819274902,
                24.808815002441406
            ],
            "min" : [
                -46.49488830566406,
                -6.567915916442871,
                -7.028317451477051
            ],
            "type" : "VEC3"
        },
        {
            "bufferView" : 1,
            "componentType" : 5126,
            "count" : 386,
            "type" : "VEC3"
        },
        {
            "bufferView" : 2,
            "componentType" : 5126,
            "count" : 386,
            "type" : "VEC2"
        },
        {
            "bufferView" : 3,
            "componentType" : 5123,
            "count" : 588,
            "type" : "SCALAR"
        },
        {
            "bufferView" : 4,
            "componentType" : 5126,
            "count" : 1714,
            "max" : [
                1.0519518852233887,
                11.353103637695312,
                1.0635809898376465
            ],
            "min" : [
                -1,
                -1.9125251770019531,
                -1.044729471206665
            ],
            "type" : "VEC3"
        },
        {
            "bufferView" : 5,
            "componentType" : 5126,
            "count" : 1714,
            "type" : "VEC3"
        },
        {
            "bufferView" : 6,
            "componentType" : 5126,
            "count" : 1714,
            "type" : "VEC2"
        },
        {
            "bufferView" : 7,
            "componentType" : 5123,
            "count" : 2646,
            "type" : "SCALAR"
        }
    ],
    "bufferViews" : [
        {
            "buffer" : 0,
            "byteLength" : 4632,
            "byteOffset" : 0
        },
        {
            "buffer" : 0,
            "byteLength" : 4632,
            "byteOffset" : 4632
        },
        {
            "buffer" : 0,
            "byteLength" : 3088,
            "byteOffset" : 9264
        },
        {
            "buffer" : 0,
            "byteLength" : 1176,
            "byteOffset" : 12352
        },
        {
            "buffer" : 0,
            "byteLength" : 20568,
            "byteOffset" : 13528
        },
        {
            "buffer" : 0,
            "byteLength" : 20568,
            "byteOffset" : 34096
        },
        {
            "buffer" : 0,
            "byteLength" : 13712,
            "byteOffset" : 54664
        },
        {
            "buffer" : 0,
            "byteLength" : 5292,
            "byteOffset" : 68376
        }
    ],
    "buffers" : [
        {
            "byteLength" : 73668,
            "uri" : "data:application/octet-stream;base64,"
        }
    ]
}
