{
    "asset" : {
        "generator" : "Khronos glTF Blender I/O v1.1.46",
        "version" : "2.0"
    },
    "scene" : 0,
    "scenes" : [
        {
            "name" : "Scene",
            "nodes" : [
                0,
                1
            ]
        }
    ],
    "nodes" : [
        {
            "mesh" : 0,
            "name" : "Cube.007",
            "rotation" : [
                0.2743995487689972,
                0.2791762948036194,
                -0.0835949182510376,
                0.9163936972618103
            ],
            "scale" : [
                1.655802845954895,
                0.09688457101583481,
                1.0485661029815674
            ],
            "translation" : [
                0,
                0.7256443500518799,
                0
            ]
        },
        {
            "mesh" : 1,
            "name" : "Cube.008",
            "rotation" : [
                0.2743995487689972,
                0.2791762948036194,
                -0.0835949182510376,
                0.9163936972618103
            ],
            "scale" : [
                1.655802845954895,
                0.09688457101583481,
                1.0485661029815674
            ],
            "translation" : [
                0,
                0.7256443500518799,
                0
            ]
        }
    ],
    "materials" : [
        {
            "doubleSided" : true,
            "emissiveFactor" : [
                0,
                0,
                0
            ],
            "name" : "Material.007",
            "pbrMetallicRoughness" : {
                "baseColorFactor" : [
                    0.03804078698158264,
                    0.01940385438501835,
                    0.011474285274744034,
                    1
                ],
                "metallicFactor" : 0,
                "roughnessFactor" : 0.5
            }
        },
        {
            "doubleSided" : true,
            "emissiveFactor" : [
                0,
                0,
                0
            ],
            "name" : "Material.006",
            "pbrMetallicRoughness" : {
                "baseColorTexture" : {
                    "index" : 0,
                    "texCoord" : 0
                },
                "metallicFactor" : 0,
                "roughnessFactor" : 0.5
            }
        }
    ],
    "meshes" : [
        {
            "name" : "Cube.009",
            "primitives" : [
                {
                    "attributes" : {
                        "POSITION" : 0,
                        "NORMAL" : 1,
                        "TEXCOORD_0" : 2
                    },
                    "indices" : 3,
                    "material" : 0
                }
            ]
        },
        {
            "name" : "Cube.002",
            "primitives" : [
                {
                    "attributes" : {
                        "POSITION" : 4,
                        "NORMAL" : 5,
                        "TEXCOORD_0" : 6
                    },
                    "indices" : 7,
                    "material" : 1
                }
            ]
        }
    ],
    "textures" : [
        {
            "source" : 0
        }
    ],
    "images" : [
        {
            "bufferView" : 8,
            "mimeType" : "image/jpeg",
            "name" : "042820antPortrait"
        }
    ],
    "accessors" : [
        {
            "bufferView" : 0,
            "componentType" : 5126,
            "count" : 48,
            "max" : [
                1,
                1.0000001192092896,
                1
            ],
            "min" : [
                -1,
                -1,
                -1
            ],
            "type" : "VEC3"
        },
        {
            "bufferView" : 1,
            "componentType" : 5126,
            "count" : 48,
            "type" : "VEC3"
        },
        {
            "bufferView" : 2,
            "componentType" : 5126,
            "count" : 48,
            "type" : "VEC2"
        },
        {
            "bufferView" : 3,
            "componentType" : 5123,
            "count" : 78,
            "type" : "SCALAR"
        },
        {
            "bufferView" : 4,
            "componentType" : 5126,
            "count" : 4,
            "max" : [
                0.9280304908752441,
                0.05136072635650635,
                0.8643083572387695
            ],
            "min" : [
                -0.9280304908752441,
                0.05136072635650635,
                -0.8643083572387695
            ],
            "type" : "VEC3"
        },
        {
            "bufferView" : 5,
            "componentType" : 5126,
            "count" : 4,
            "type" : "VEC3"
        },
        {
            "bufferView" : 6,
            "componentType" : 5126,
            "count" : 4,
            "type" : "VEC2"
        },
        {
            "bufferView" : 7,
            "componentType" : 5123,
            "count" : 6,
            "type" : "SCALAR"
        }
    ],
    "bufferViews" : [
        {
            "buffer" : 0,
            "byteLength" : 576,
            "byteOffset" : 0
        },
        {
            "buffer" : 0,
            "byteLength" : 576,
            "byteOffset" : 576
        },
        {
            "buffer" : 0,
            "byteLength" : 384,
            "byteOffset" : 1152
        },
        {
            "buffer" : 0,
            "byteLength" : 156,
            "byteOffset" : 1536
        },
        {
            "buffer" : 0,
            "byteLength" : 48,
            "byteOffset" : 1692
        },
        {
            "buffer" : 0,
            "byteLength" : 48,
            "byteOffset" : 1740
        },
        {
            "buffer" : 0,
            "byteLength" : 32,
            "byteOffset" : 1788
        },
        {
            "buffer" : 0,
            "byteLength" : 12,
            "byteOffset" : 1820
        },
        {
            "buffer" : 0,
            "byteLength" : 545606,
            "byteOffset" : 1832
        }
    ],
    "buffers" : [
        {
            "byteLength" : 547440,
            "uri" : "data:application/octet-stream;base64,"
        }
    ]
}
