{
    "asset" : {
        "generator" : "Khronos glTF Blender I/O v1.1.46",
        "version" : "2.0"
    },
    "scene" : 0,
    "scenes" : [
        {
            "name" : "Scene",
            "nodes" : [
                0,
                1,
                2
            ]
        }
    ],
    "nodes" : [
        {
            "mesh" : 0,
            "name" : "Cube",
            "rotation" : [
                0,
                0.9698092937469482,
                0,
                0.24386464059352875
            ],
            "scale" : [
                0.8542881608009338,
                0.8542881608009338,
                0.8542881608009338
            ],
            "translation" : [
                0.023267269134521484,
                0.5195600986480713,
                -0.21927452087402344
            ]
        },
        {
            "mesh" : 1,
            "name" : "Cube.001",
            "rotation" : [
                0,
                0.9698092937469482,
                0,
                0.24386464059352875
            ],
            "scale" : [
                -0.1328301876783371,
                -0.02794954925775528,
                -0.09888825565576553
            ],
            "translation" : [
                -0.42072510719299316,
                0.45266759395599365,
                0.6077451705932617
            ]
        },
        {
            "mesh" : 2,
            "name" : "Cylinder",
            "rotation" : [
                0,
                0.9698092937469482,
                0,
                0.24386464059352875
            ],
            "scale" : [
                0.07815614342689514,
                0.07815614342689514,
                0.07815614342689514
            ],
            "translation" : [
                -0.025535941123962402,
                0.0878838300704956,
                0.6355953216552734
            ]
        }
    ],
    "materials" : [
        {
            "doubleSided" : true,
            "emissiveFactor" : [
                0,
                0,
                0
            ],
            "name" : "Material",
            "pbrMetallicRoughness" : {
                "baseColorFactor" : [
                    0.8000000715255737,
                    0.010642318986356258,
                    0,
                    1
                ],
                "metallicFactor" : 0,
                "roughnessFactor" : 0.32045453786849976
            }
        },
        {
            "doubleSided" : true,
            "emissiveFactor" : [
                0,
                0,
                0
            ],
            "name" : "Material.001",
            "pbrMetallicRoughness" : {
                "baseColorFactor" : [
                    0.4765712320804596,
                    0.4765712320804596,
                    0.4765712320804596,
                    1
                ],
                "metallicFactor" : 0,
                "roughnessFactor" : 0
            }
        }
    ],
    "meshes" : [
        {
            "name" : "Cube",
            "primitives" : [
                {
                    "attributes" : {
                        "POSITION" : 0,
                        "NORMAL" : 1,
                        "TEXCOORD_0" : 2
                    },
                    "indices" : 3,
                    "material" : 0
                }
            ]
        },
        {
            "name" : "Cube.001",
            "primitives" : [
                {
                    "attributes" : {
                        "POSITION" : 4,
                        "NORMAL" : 5,
                        "TEXCOORD_0" : 6
                    },
                    "indices" : 7,
                    "material" : 1
                }
            ]
        },
        {
            "name" : "Cylinder",
            "primitives" : [
                {
                    "attributes" : {
                        "POSITION" : 8,
                        "NORMAL" : 9,
                        "TEXCOORD_0" : 10
                    },
                    "indices" : 11,
                    "material" : 1
                }
            ]
        }
    ],
    "accessors" : [
        {
            "bufferView" : 0,
            "componentType" : 5126,
            "count" : 346,
            "max" : [
                0.558547854423523,
                0.7632800936698914,
                1.0382702350616455
            ],
            "min" : [
                -0.558547854423523,
                -0.5184770226478577,
                -1.0382702350616455
            ],
            "type" : "VEC3"
        },
        {
            "bufferView" : 1,
            "componentType" : 5126,
            "count" : 346,
            "type" : "VEC3"
        },
        {
            "bufferView" : 2,
            "componentType" : 5126,
            "count" : 346,
            "type" : "VEC2"
        },
        {
            "bufferView" : 3,
            "componentType" : 5123,
            "count" : 864,
            "type" : "SCALAR"
        },
        {
            "bufferView" : 4,
            "componentType" : 5126,
            "count" : 24,
            "max" : [
                1,
                1,
                1
            ],
            "min" : [
                -1,
                -1,
                -1
            ],
            "type" : "VEC3"
        },
        {
            "bufferView" : 5,
            "componentType" : 5126,
            "count" : 24,
            "type" : "VEC3"
        },
        {
            "bufferView" : 6,
            "componentType" : 5126,
            "count" : 24,
            "type" : "VEC2"
        },
        {
            "bufferView" : 7,
            "componentType" : 5123,
            "count" : 36,
            "type" : "SCALAR"
        },
        {
            "bufferView" : 8,
            "componentType" : 5126,
            "count" : 768,
            "max" : [
                10.247095108032227,
                1.0000008344650269,
                20.864742279052734
            ],
            "min" : [
                -1,
                -1,
                -1
            ],
            "type" : "VEC3"
        },
        {
            "bufferView" : 9,
            "componentType" : 5126,
            "count" : 768,
            "type" : "VEC3"
        },
        {
            "bufferView" : 10,
            "componentType" : 5126,
            "count" : 768,
            "type" : "VEC2"
        },
        {
            "bufferView" : 11,
            "componentType" : 5123,
            "count" : 1488,
            "type" : "SCALAR"
        }
    ],
    "bufferViews" : [
        {
            "buffer" : 0,
            "byteLength" : 4152,
            "byteOffset" : 0
        },
        {
            "buffer" : 0,
            "byteLength" : 4152,
            "byteOffset" : 4152
        },
        {
            "buffer" : 0,
            "byteLength" : 2768,
            "byteOffset" : 8304
        },
        {
            "buffer" : 0,
            "byteLength" : 1728,
            "byteOffset" : 11072
        },
        {
            "buffer" : 0,
            "byteLength" : 288,
            "byteOffset" : 12800
        },
        {
            "buffer" : 0,
            "byteLength" : 288,
            "byteOffset" : 13088
        },
        {
            "buffer" : 0,
            "byteLength" : 192,
            "byteOffset" : 13376
        },
        {
            "buffer" : 0,
            "byteLength" : 72,
            "byteOffset" : 13568
        },
        {
            "buffer" : 0,
            "byteLength" : 9216,
            "byteOffset" : 13640
        },
        {
            "buffer" : 0,
            "byteLength" : 9216,
            "byteOffset" : 22856
        },
        {
            "buffer" : 0,
            "byteLength" : 6144,
            "byteOffset" : 32072
        },
        {
            "buffer" : 0,
            "byteLength" : 2976,
            "byteOffset" : 38216
        }
    ],
    "buffers" : [
        {
            "byteLength" : 41192,
            "uri" : "data:application/octet-stream;base64,"
        }
    ]
}
