{
    "asset" : {
        "generator" : "Khronos glTF Blender I/O v1.1.46",
        "version" : "2.0"
    },
    "scene" : 0,
    "scenes" : [
        {
            "name" : "Scene",
            "nodes" : [
                0,
                1,
                2,
                3,
                4
            ]
        }
    ],
    "nodes" : [
        {
            "mesh" : 0,
            "name" : "Cylinder.001",
            "rotation" : [
                -0.7684048414230347,
                0,
                0,
                0.6399641036987305
            ],
            "scale" : [
                0.6479098200798035,
                0.6618530750274658,
                0.6618530750274658
            ],
            "translation" : [
                0.003947011195123196,
                0.6902557611465454,
                0.00807536393404007
            ]
        },
        {
            "mesh" : 1,
            "name" : "Cube.002",
            "rotation" : [
                -0.10623545199632645,
                0.518340528011322,
                -0.0241156704723835,
                0.8482072353363037
            ],
            "scale" : [
                -0.05272398889064789,
                -0.11597194522619247,
                1.8401026725769043
            ],
            "translation" : [
                1.5898317098617554,
                0.9264892339706421,
                -0.11223757266998291
            ]
        },
        {
            "mesh" : 2,
            "name" : "Cube.003",
            "rotation" : [
                -0.11233685165643692,
                -0.6547654271125793,
                0.016405029222369194,
                0.7472573518753052
            ],
            "scale" : [
                -0.05272398889064789,
                -0.11597195267677307,
                1.8401025533676147
            ],
            "translation" : [
                -1.5433104038238525,
                0.9369232654571533,
                -0.1438581943511963
            ]
        },
        {
            "mesh" : 3,
            "name" : "SurfPatch",
            "rotation" : [
                0.6058375835418701,
                0,
                0,
                0.7955883741378784
            ],
            "scale" : [
                1.157259464263916,
                1.157259464263916,
                1.157259464263916
            ],
            "translation" : [
                0.003947089891880751,
                0.6902556419372559,
                0.008075334131717682
            ]
        },
        {
            "mesh" : 4,
            "name" : "Cube.004",
            "rotation" : [
                -0.09082132577896118,
                0,
                0,
                0.9958671927452087
            ],
            "scale" : [
                0.15757383406162262,
                0.15757383406162262,
                0.04802792891860008
            ],
            "translation" : [
                0.003947011195123196,
                0.9115505814552307,
                -0.03262656554579735
            ]
        }
    ],
    "materials" : [
        {
            "doubleSided" : true,
            "emissiveFactor" : [
                0,
                0,
                0
            ],
            "name" : "Material.002",
            "pbrMetallicRoughness" : {
                "baseColorFactor" : [
                    0.0008709823014214635,
                    0.0008709823014214635,
                    0.0008709823014214635,
                    1
                ],
                "metallicFactor" : 0,
                "roughnessFactor" : 0.1568181812763214
            }
        },
        {
            "doubleSided" : true,
            "emissiveFactor" : [
                0,
                0,
                0
            ],
            "name" : "Material.003",
            "pbrMetallicRoughness" : {
                "baseColorFactor" : [
                    0.007690874394029379,
                    0.011625956743955612,
                    0.013154776766896248,
                    1
                ],
                "metallicFactor" : 0,
                "roughnessFactor" : 0
            }
        }
    ],
    "meshes" : [
        {
            "name" : "Cylinder.001",
            "primitives" : [
                {
                    "attributes" : {
                        "POSITION" : 0,
                        "NORMAL" : 1,
                        "TEXCOORD_0" : 2
                    },
                    "indices" : 3,
                    "material" : 0
                }
            ]
        },
        {
            "name" : "Cube.003",
            "primitives" : [
                {
                    "attributes" : {
                        "POSITION" : 4,
                        "NORMAL" : 5,
                        "TEXCOORD_0" : 6
                    },
                    "indices" : 7,
                    "material" : 0
                }
            ]
        },
        {
            "name" : "Cube.004",
            "primitives" : [
                {
                    "attributes" : {
                        "POSITION" : 8,
                        "NORMAL" : 9,
                        "TEXCOORD_0" : 10
                    },
                    "indices" : 7,
                    "material" : 0
                }
            ]
        },
        {
            "name" : "SurfPatch",
            "primitives" : [
                {
                    "attributes" : {
                        "POSITION" : 11,
                        "NORMAL" : 12,
                        "TEXCOORD_0" : 13
                    },
                    "indices" : 14,
                    "material" : 1
                }
            ]
        },
        {
            "name" : "Cube.005",
            "primitives" : [
                {
                    "attributes" : {
                        "POSITION" : 15,
                        "NORMAL" : 16,
                        "TEXCOORD_0" : 17
                    },
                    "indices" : 18,
                    "material" : 0
                }
            ]
        }
    ],
    "accessors" : [
        {
            "bufferView" : 0,
            "componentType" : 5126,
            "count" : 4102,
            "max" : [
                2.5039584636688232,
                0.13512884080410004,
                0.8433994054794312
            ],
            "min" : [
                -2.5039584636688232,
                -0.13512885570526123,
                -0.9987208843231201
            ],
            "type" : "VEC3"
        },
        {
            "bufferView" : 1,
            "componentType" : 5126,
            "count" : 4102,
            "type" : "VEC3"
        },
        {
            "bufferView" : 2,
            "componentType" : 5126,
            "count" : 4102,
            "type" : "VEC2"
        },
        {
            "bufferView" : 3,
            "componentType" : 5123,
            "count" : 6216,
            "type" : "SCALAR"
        },
        {
            "bufferView" : 4,
            "componentType" : 5126,
            "count" : 56,
            "max" : [
                1.453373908996582,
                2.955605983734131,
                0.01971149444580078
            ],
            "min" : [
                -3.0767831802368164,
                -0.941964864730835,
                -2.004889965057373
            ],
            "type" : "VEC3"
        },
        {
            "bufferView" : 5,
            "componentType" : 5126,
            "count" : 56,
            "type" : "VEC3"
        },
        {
            "bufferView" : 6,
            "componentType" : 5126,
            "count" : 56,
            "type" : "VEC2"
        },
        {
            "bufferView" : 7,
            "componentType" : 5123,
            "count" : 84,
            "type" : "SCALAR"
        },
        {
            "bufferView" : 8,
            "componentType" : 5126,
            "count" : 56,
            "max" : [
                3.4920806884765625,
                3.0934133529663086,
                0.03956472873687744
            ],
            "min" : [
                -1.4368014335632324,
                -0.8041574954986572,
                -1.9982317686080933
            ],
            "type" : "VEC3"
        },
        {
            "bufferView" : 9,
            "componentType" : 5126,
            "count" : 56,
            "type" : "VEC3"
        },
        {
            "bufferView" : 10,
            "componentType" : 5126,
            "count" : 56,
            "type" : "VEC2"
        },
        {
            "bufferView" : 11,
            "componentType" : 5126,
            "count" : 417,
            "max" : [
                1.2834161520004272,
                0.09016697108745575,
                0.5276103019714355
            ],
            "min" : [
                -1.2834161520004272,
                -0.03497995436191559,
                -0.41709235310554504
            ],
            "type" : "VEC3"
        },
        {
            "bufferView" : 12,
            "componentType" : 5126,
            "count" : 417,
            "type" : "VEC3"
        },
        {
            "bufferView" : 13,
            "componentType" : 5126,
            "count" : 417,
            "type" : "VEC2"
        },
        {
            "bufferView" : 14,
            "componentType" : 5123,
            "count" : 417,
            "type" : "SCALAR"
        },
        {
            "bufferView" : 15,
            "componentType" : 5126,
            "count" : 38,
            "max" : [
                1.5365753173828125,
                1,
                1
            ],
            "min" : [
                -1.5365753173828125,
                -1,
                -1
            ],
            "type" : "VEC3"
        },
        {
            "bufferView" : 16,
            "componentType" : 5126,
            "count" : 38,
            "type" : "VEC3"
        },
        {
            "bufferView" : 17,
            "componentType" : 5126,
            "count" : 38,
            "type" : "VEC2"
        },
        {
            "bufferView" : 18,
            "componentType" : 5123,
            "count" : 60,
            "type" : "SCALAR"
        }
    ],
    "bufferViews" : [
        {
            "buffer" : 0,
            "byteLength" : 49224,
            "byteOffset" : 0
        },
        {
            "buffer" : 0,
            "byteLength" : 49224,
            "byteOffset" : 49224
        },
        {
            "buffer" : 0,
            "byteLength" : 32816,
            "byteOffset" : 98448
        },
        {
            "buffer" : 0,
            "byteLength" : 12432,
            "byteOffset" : 131264
        },
        {
            "buffer" : 0,
            "byteLength" : 672,
            "byteOffset" : 143696
        },
        {
            "buffer" : 0,
            "byteLength" : 672,
            "byteOffset" : 144368
        },
        {
            "buffer" : 0,
            "byteLength" : 448,
            "byteOffset" : 145040
        },
        {
            "buffer" : 0,
            "byteLength" : 168,
            "byteOffset" : 145488
        },
        {
            "buffer" : 0,
            "byteLength" : 672,
            "byteOffset" : 145656
        },
        {
            "buffer" : 0,
            "byteLength" : 672,
            "byteOffset" : 146328
        },
        {
            "buffer" : 0,
            "byteLength" : 448,
            "byteOffset" : 147000
        },
        {
            "buffer" : 0,
            "byteLength" : 5004,
            "byteOffset" : 147448
        },
        {
            "buffer" : 0,
            "byteLength" : 5004,
            "byteOffset" : 152452
        },
        {
            "buffer" : 0,
            "byteLength" : 3336,
            "byteOffset" : 157456
        },
        {
            "buffer" : 0,
            "byteLength" : 834,
            "byteOffset" : 160792
        },
        {
            "buffer" : 0,
            "byteLength" : 456,
            "byteOffset" : 161628
        },
        {
            "buffer" : 0,
            "byteLength" : 456,
            "byteOffset" : 162084
        },
        {
            "buffer" : 0,
            "byteLength" : 304,
            "byteOffset" : 162540
        },
        {
            "buffer" : 0,
            "byteLength" : 120,
            "byteOffset" : 162844
        }
    ],
    "buffers" : [
        {
            "byteLength" : 162964,
            "uri" : "data:application/octet-stream;base64,"
        }
    ]
}
