{
    "asset" : {
        "generator" : "Khronos glTF Blender I/O v1.1.46",
        "version" : "2.0"
    },
    "scene" : 0,
    "scenes" : [
        {
            "name" : "Scene",
            "nodes" : [
                0,
                1,
                2,
                3,
                4
            ]
        }
    ],
    "nodes" : [
        {
            "mesh" : 0,
            "name" : "Cube.005",
            "rotation" : [
                0,
                0.3384731411933899,
                0,
                0.9409760236740112
            ],
            "scale" : [
                0.6742150783538818,
                0.4108923077583313,
                0.18984322249889374
            ],
            "translation" : [
                -0.21117547154426575,
                0.40445399284362793,
                0.08893294632434845
            ]
        },
        {
            "mesh" : 1,
            "name" : "Cylinder.002",
            "rotation" : [
                0.665370523929596,
                0.23933666944503784,
                -0.23933663964271545,
                0.6653705835342407
            ],
            "scale" : [
                0.351348876953125,
                0.351348876953125,
                0.351348876953125
            ],
            "translation" : [
                -0.07101331651210785,
                0.40445399284362793,
                0.2585541605949402
            ]
        },
        {
            "mesh" : 2,
            "name" : "Cylinder.003",
            "rotation" : [
                0.665370523929596,
                0.23933666944503784,
                -0.23933663964271545,
                0.6653705835342407
            ],
            "scale" : [
                0.3016528785228729,
                0.3016528785228729,
                0.3016528785228729
            ],
            "translation" : [
                -0.12706643342971802,
                0.40445399284362793,
                0.19071988761425018
            ]
        },
        {
            "mesh" : 3,
            "name" : "Cube.006",
            "rotation" : [
                0,
                0.3384731411933899,
                0,
                0.9409760236740112
            ],
            "scale" : [
                0.3050340414047241,
                0.18428157269954681,
                0.1086592972278595
            ],
            "translation" : [
                -0.15179100632667542,
                0.8609945178031921,
                0.16079874336719513
            ]
        },
        {
            "mesh" : 4,
            "name" : "Cylinder.004",
            "rotation" : [
                0,
                0.3384731411933899,
                0,
                0.9409760236740112
            ],
            "scale" : [
                0.1132180467247963,
                0.1132180467247963,
                0.1132180467247963
            ],
            "translation" : [
                -0.5691643953323364,
                0.7349552512168884,
                0.3847479820251465
            ]
        }
    ],
    "materials" : [
        {
            "doubleSided" : true,
            "emissiveFactor" : [
                0,
                0,
                0
            ],
            "name" : "camera",
            "pbrMetallicRoughness" : {
                "baseColorFactor" : [
                    0,
                    0,
                    0,
                    1
                ],
                "metallicFactor" : 0,
                "roughnessFactor" : 0.9909090995788574
            }
        },
        {
            "doubleSided" : true,
            "emissiveFactor" : [
                0,
                0,
                0
            ],
            "name" : "Material.003",
            "pbrMetallicRoughness" : {
                "baseColorFactor" : [
                    0.007690874394029379,
                    0.011625956743955612,
                    0.013154776766896248,
                    1
                ],
                "metallicFactor" : 0,
                "roughnessFactor" : 0
            }
        },
        {
            "doubleSided" : true,
            "emissiveFactor" : [
                0,
                0,
                0
            ],
            "name" : "Material.005",
            "pbrMetallicRoughness" : {
                "baseColorFactor" : [
                    0.25122150778770447,
                    0.25122150778770447,
                    0.25122150778770447,
                    1
                ],
                "metallicFactor" : 0,
                "roughnessFactor" : 0.5
            }
        }
    ],
    "meshes" : [
        {
            "name" : "Cube.006",
            "primitives" : [
                {
                    "attributes" : {
                        "POSITION" : 0,
                        "NORMAL" : 1,
                        "TEXCOORD_0" : 2
                    },
                    "indices" : 3,
                    "material" : 0
                }
            ]
        },
        {
            "name" : "Cylinder.002",
            "primitives" : [
                {
                    "attributes" : {
                        "POSITION" : 4,
                        "NORMAL" : 5,
                        "TEXCOORD_0" : 6
                    },
                    "indices" : 7,
                    "material" : 0
                }
            ]
        },
        {
            "name" : "Cylinder.003",
            "primitives" : [
                {
                    "attributes" : {
                        "POSITION" : 8,
                        "NORMAL" : 9,
                        "TEXCOORD_0" : 10
                    },
                    "indices" : 11,
                    "material" : 1
                }
            ]
        },
        {
            "name" : "Cube.007",
            "primitives" : [
                {
                    "attributes" : {
                        "POSITION" : 12,
                        "NORMAL" : 13,
                        "TEXCOORD_0" : 14
                    },
                    "indices" : 15,
                    "material" : 0
                }
            ]
        },
        {
            "name" : "Cylinder.004",
            "primitives" : [
                {
                    "attributes" : {
                        "POSITION" : 16,
                        "NORMAL" : 17,
                        "TEXCOORD_0" : 18
                    },
                    "indices" : 11,
                    "material" : 2
                }
            ]
        }
    ],
    "accessors" : [
        {
            "bufferView" : 0,
            "componentType" : 5126,
            "count" : 96,
            "max" : [
                1,
                1,
                1
            ],
            "min" : [
                -1,
                -1,
                -1
            ],
            "type" : "VEC3"
        },
        {
            "bufferView" : 1,
            "componentType" : 5126,
            "count" : 96,
            "type" : "VEC3"
        },
        {
            "bufferView" : 2,
            "componentType" : 5126,
            "count" : 96,
            "type" : "VEC2"
        },
        {
            "bufferView" : 3,
            "componentType" : 5123,
            "count" : 132,
            "type" : "SCALAR"
        },
        {
            "bufferView" : 4,
            "componentType" : 5126,
            "count" : 388,
            "max" : [
                1,
                1,
                1
            ],
            "min" : [
                -1,
                -1,
                -1
            ],
            "type" : "VEC3"
        },
        {
            "bufferView" : 5,
            "componentType" : 5126,
            "count" : 388,
            "type" : "VEC3"
        },
        {
            "bufferView" : 6,
            "componentType" : 5126,
            "count" : 388,
            "type" : "VEC2"
        },
        {
            "bufferView" : 7,
            "componentType" : 5123,
            "count" : 768,
            "type" : "SCALAR"
        },
        {
            "bufferView" : 8,
            "componentType" : 5126,
            "count" : 192,
            "max" : [
                1,
                1,
                1
            ],
            "min" : [
                -1,
                -1,
                -1
            ],
            "type" : "VEC3"
        },
        {
            "bufferView" : 9,
            "componentType" : 5126,
            "count" : 192,
            "type" : "VEC3"
        },
        {
            "bufferView" : 10,
            "componentType" : 5126,
            "count" : 192,
            "type" : "VEC2"
        },
        {
            "bufferView" : 11,
            "componentType" : 5123,
            "count" : 372,
            "type" : "SCALAR"
        },
        {
            "bufferView" : 12,
            "componentType" : 5126,
            "count" : 128,
            "max" : [
                1,
                0.6618831157684326,
                1
            ],
            "min" : [
                -1,
                -1.825885534286499,
                -1
            ],
            "type" : "VEC3"
        },
        {
            "bufferView" : 13,
            "componentType" : 5126,
            "count" : 128,
            "type" : "VEC3"
        },
        {
            "bufferView" : 14,
            "componentType" : 5126,
            "count" : 128,
            "type" : "VEC2"
        },
        {
            "bufferView" : 15,
            "componentType" : 5123,
            "count" : 252,
            "type" : "SCALAR"
        },
        {
            "bufferView" : 16,
            "componentType" : 5126,
            "count" : 192,
            "max" : [
                1,
                1,
                1
            ],
            "min" : [
                -1,
                -1,
                -1
            ],
            "type" : "VEC3"
        },
        {
            "bufferView" : 17,
            "componentType" : 5126,
            "count" : 192,
            "type" : "VEC3"
        },
        {
            "bufferView" : 18,
            "componentType" : 5126,
            "count" : 192,
            "type" : "VEC2"
        }
    ],
    "bufferViews" : [
        {
            "buffer" : 0,
            "byteLength" : 1152,
            "byteOffset" : 0
        },
        {
            "buffer" : 0,
            "byteLength" : 1152,
            "byteOffset" : 1152
        },
        {
            "buffer" : 0,
            "byteLength" : 768,
            "byteOffset" : 2304
        },
        {
            "buffer" : 0,
            "byteLength" : 264,
            "byteOffset" : 3072
        },
        {
            "buffer" : 0,
            "byteLength" : 4656,
            "byteOffset" : 3336
        },
        {
            "buffer" : 0,
            "byteLength" : 4656,
            "byteOffset" : 7992
        },
        {
            "buffer" : 0,
            "byteLength" : 3104,
            "byteOffset" : 12648
        },
        {
            "buffer" : 0,
            "byteLength" : 1536,
            "byteOffset" : 15752
        },
        {
            "buffer" : 0,
            "byteLength" : 2304,
            "byteOffset" : 17288
        },
        {
            "buffer" : 0,
            "byteLength" : 2304,
            "byteOffset" : 19592
        },
        {
            "buffer" : 0,
            "byteLength" : 1536,
            "byteOffset" : 21896
        },
        {
            "buffer" : 0,
            "byteLength" : 744,
            "byteOffset" : 23432
        },
        {
            "buffer" : 0,
            "byteLength" : 1536,
            "byteOffset" : 24176
        },
        {
            "buffer" : 0,
            "byteLength" : 1536,
            "byteOffset" : 25712
        },
        {
            "buffer" : 0,
            "byteLength" : 1024,
            "byteOffset" : 27248
        },
        {
            "buffer" : 0,
            "byteLength" : 504,
            "byteOffset" : 28272
        },
        {
            "buffer" : 0,
            "byteLength" : 2304,
            "byteOffset" : 28776
        },
        {
            "buffer" : 0,
            "byteLength" : 2304,
            "byteOffset" : 31080
        },
        {
            "buffer" : 0,
            "byteLength" : 1536,
            "byteOffset" : 33384
        }
    ],
    "buffers" : [
        {
            "byteLength" : 34920,
            "uri" : "data:application/octet-stream;base64,"
        }
    ]
}
