{
    "asset" : {
        "generator" : "Khronos glTF Blender I/O v1.1.46",
        "version" : "2.0"
    },
    "scene" : 0,
    "scenes" : [
        {
            "name" : "Scene",
            "nodes" : [
                0,
                1,
                2
            ]
        }
    ],
    "nodes" : [
        {
            "mesh" : 0,
            "name" : "Icosphere",
            "rotation" : [
                -0.01822012849152088,
                -0.28097811341285706,
                0.062091391533613205,
                0.95753014087677
            ],
            "scale" : [
                1.0997415781021118,
                1.0997415781021118,
                1.0997415781021118
            ],
            "translation" : [
                0.03951239958405495,
                0.20063170790672302,
                0.017434246838092804
            ]
        },
        {
            "mesh" : 1,
            "name" : "Icosphere.001",
            "rotation" : [
                -0.01822012849152088,
                -0.28097811341285706,
                0.062091391533613205,
                0.95753014087677
            ],
            "scale" : [
                0.18728046119213104,
                0.0845070630311966,
                0.18728046119213104
            ],
            "translation" : [
                -0.0731947273015976,
                1.229097843170166,
                -0.054943691939115524
            ]
        },
        {
            "mesh" : 2,
            "name" : "Plane",
            "rotation" : [
                0.0035548105370253325,
                -0.2815457880496979,
                -0.012114247307181358,
                0.9594647288322449
            ],
            "scale" : [
                0.6832392811775208,
                0.6832392811775208,
                0.6832392811775208
            ],
            "translation" : [
                0.07077355682849884,
                0.20257019996643066,
                0.03750944510102272
            ]
        }
    ],
    "materials" : [
        {
            "doubleSided" : true,
            "emissiveFactor" : [
                0,
                0,
                0
            ],
            "name" : "hat",
            "pbrMetallicRoughness" : {
                "baseColorFactor" : [
                    0.35058045387268066,
                    0.35058045387268066,
                    0.35058045387268066,
                    1
                ],
                "metallicFactor" : 0,
                "roughnessFactor" : 1
            }
        },
        {
            "doubleSided" : true,
            "emissiveFactor" : [
                0,
                0,
                0
            ],
            "name" : "Material.004",
            "pbrMetallicRoughness" : {
                "baseColorFactor" : [
                    0.8000000715255737,
                    0.04789356142282486,
                    0.021097099408507347,
                    1
                ],
                "metallicFactor" : 0,
                "roughnessFactor" : 1
            }
        }
    ],
    "meshes" : [
        {
            "name" : "Icosphere",
            "primitives" : [
                {
                    "attributes" : {
                        "POSITION" : 0,
                        "NORMAL" : 1,
                        "TEXCOORD_0" : 2
                    },
                    "indices" : 3,
                    "material" : 0
                }
            ]
        },
        {
            "name" : "Icosphere.001",
            "primitives" : [
                {
                    "attributes" : {
                        "POSITION" : 4,
                        "NORMAL" : 5,
                        "TEXCOORD_0" : 6
                    },
                    "indices" : 7,
                    "material" : 1
                }
            ]
        },
        {
            "name" : "Plane",
            "primitives" : [
                {
                    "attributes" : {
                        "POSITION" : 8,
                        "NORMAL" : 9,
                        "TEXCOORD_0" : 10
                    },
                    "indices" : 11,
                    "material" : 1
                }
            ]
        }
    ],
    "accessors" : [
        {
            "bufferView" : 0,
            "componentType" : 5126,
            "count" : 280,
            "max" : [
                0.9510578513145447,
                1,
                0.9999999403953552
            ],
            "min" : [
                -0.9510578513145447,
                -0.008868678472936153,
                -0.9999999403953552
            ],
            "type" : "VEC3"
        },
        {
            "bufferView" : 1,
            "componentType" : 5126,
            "count" : 280,
            "type" : "VEC3"
        },
        {
            "bufferView" : 2,
            "componentType" : 5126,
            "count" : 280,
            "type" : "VEC2"
        },
        {
            "bufferView" : 3,
            "componentType" : 5123,
            "count" : 300,
            "type" : "SCALAR"
        },
        {
            "bufferView" : 4,
            "componentType" : 5126,
            "count" : 240,
            "max" : [
                0.9510578513145447,
                1,
                0.9999999403953552
            ],
            "min" : [
                -0.9510578513145447,
                -1,
                -0.9999999403953552
            ],
            "type" : "VEC3"
        },
        {
            "bufferView" : 5,
            "componentType" : 5126,
            "count" : 240,
            "type" : "VEC3"
        },
        {
            "bufferView" : 6,
            "componentType" : 5126,
            "count" : 240,
            "type" : "VEC2"
        },
        {
            "bufferView" : 7,
            "componentType" : 5123,
            "count" : 240,
            "type" : "SCALAR"
        },
        {
            "bufferView" : 8,
            "componentType" : 5126,
            "count" : 72,
            "max" : [
                2.8062796592712402,
                0.31497281789779663,
                1.254104495048523
            ],
            "min" : [
                0.7958306074142456,
                -0.1674269139766693,
                -1.254104495048523
            ],
            "type" : "VEC3"
        },
        {
            "bufferView" : 9,
            "componentType" : 5126,
            "count" : 72,
            "type" : "VEC3"
        },
        {
            "bufferView" : 10,
            "componentType" : 5126,
            "count" : 72,
            "type" : "VEC2"
        },
        {
            "bufferView" : 11,
            "componentType" : 5123,
            "count" : 108,
            "type" : "SCALAR"
        }
    ],
    "bufferViews" : [
        {
            "buffer" : 0,
            "byteLength" : 3360,
            "byteOffset" : 0
        },
        {
            "buffer" : 0,
            "byteLength" : 3360,
            "byteOffset" : 3360
        },
        {
            "buffer" : 0,
            "byteLength" : 2240,
            "byteOffset" : 6720
        },
        {
            "buffer" : 0,
            "byteLength" : 600,
            "byteOffset" : 8960
        },
        {
            "buffer" : 0,
            "byteLength" : 2880,
            "byteOffset" : 9560
        },
        {
            "buffer" : 0,
            "byteLength" : 2880,
            "byteOffset" : 12440
        },
        {
            "buffer" : 0,
            "byteLength" : 1920,
            "byteOffset" : 15320
        },
        {
            "buffer" : 0,
            "byteLength" : 480,
            "byteOffset" : 17240
        },
        {
            "buffer" : 0,
            "byteLength" : 864,
            "byteOffset" : 17720
        },
        {
            "buffer" : 0,
            "byteLength" : 864,
            "byteOffset" : 18584
        },
        {
            "buffer" : 0,
            "byteLength" : 576,
            "byteOffset" : 19448
        },
        {
            "buffer" : 0,
            "byteLength" : 216,
            "byteOffset" : 20024
        }
    ],
    "buffers" : [
        {
            "byteLength" : 20240,
            "uri" : "data:application/octet-stream;base64,"
        }
    ]
}
